<?xml version="1.0" standalone="no"?>
<!DOCTYPE svg PUBLIC "-//W3C//DTD SVG 20010904//EN"
 "http://www.w3.org/TR/2001/REC-SVG-20010904/DTD/svg10.dtd">
<svg version="1.0" xmlns="http://www.w3.org/2000/svg"
 width="362.000000pt" height="362.000000pt" viewBox="0 0 362.000000 362.000000"
 preserveAspectRatio="xMidYMid meet">
<metadata>
Created by potrace 1.11, written by Peter Selinger 2001-2013
</metadata>
<g transform="translate(0.000000,362.000000) scale(0.100000,-0.100000)"
fill="#000000" stroke="none">
<path d="M0 1810 l0 -1810 1810 0 1810 0 0 1810 0 1810 -1810 0 -1810 0 0
-1810z m2780 280 l0 -669 38 -10 c20 -5 56 -15 80 -21 l42 -11 0 -83 0 -83
-211 -8 c-115 -4 -213 -5 -215 -2 -3 3 -8 24 -11 46 -3 23 -8 41 -11 41 -3 0
-20 -12 -39 -26 -18 -14 -59 -37 -91 -52 -52 -24 -68 -27 -173 -27 -113 0
-118 1 -185 35 -147 75 -224 245 -224 495 0 375 195 587 540 589 52 1 109 -2
125 -6 l30 -6 0 120 0 121 -79 21 -79 21 2 80 c1 44 4 81 6 83 2 2 88 7 192
11 103 4 205 9 226 9 l37 2 0 -670z m-1179 210 c98 -18 106 -24 103 -78 -2
-26 -6 -114 -10 -195 l-6 -148 -91 3 -91 3 -15 83 c-12 72 -16 82 -35 82 -30
-1 -102 -35 -147 -71 l-39 -31 2 -266 3 -267 93 -24 92 -24 0 -83 0 -84 -324
0 -323 0 -6 78 c-2 42 -3 80 0 84 2 4 37 17 78 29 l74 22 7 43 c3 24 4 171 2
326 l-5 282 -78 20 -78 21 2 80 c1 44 4 81 5 83 4 3 410 21 413 18 2 -1 6 -30
9 -64 l7 -62 41 33 c89 73 174 115 237 116 15 1 51 -4 80 -9z"/>
<path d="M2250 2058 c-52 -18 -106 -78 -125 -140 -22 -69 -30 -227 -16 -303
17 -92 49 -146 101 -173 76 -39 163 -19 234 54 l34 35 1 253 0 253 -27 12
c-38 18 -160 23 -202 9z"/>
</g>
</svg>
