<?xml version="1.0" standalone="no"?>
<!DOCTYPE svg PUBLIC "-//W3C//DTD SVG 20010904//EN"
 "http://www.w3.org/TR/2001/REC-SVG-20010904/DTD/svg10.dtd">
<svg version="1.0" xmlns="http://www.w3.org/2000/svg"
 width="500.000000pt" height="500.000000pt" viewBox="0 0 500.000000 500.000000"
 preserveAspectRatio="xMidYMid meet">
<metadata>
Created by potrace 1.11, written by Peter Selinger 2001-2013
</metadata>
<g transform="translate(0.000000,500.000000) scale(0.100000,-0.100000)"
fill="#000000" stroke="none">
<path d="M2178 4985 c-544 -74 -1023 -308 -1417 -690 -417 -404 -672 -910
-746 -1478 -20 -156 -20 -478 0 -634 72 -543 306 -1026 690 -1422 404 -417
910 -672 1478 -746 156 -20 478 -20 634 0 568 74 1074 329 1478 746 384 396
618 879 690 1422 20 156 20 478 0 634 -72 543 -306 1026 -690 1422 -404 417
-910 672 -1478 746 -146 19 -500 19 -639 0z m-275 -1288 c199 -47 316 -165
374 -377 26 -95 25 -386 -1 -485 -50 -186 -127 -275 -279 -325 -35 -11 -38
-15 -32 -39 6 -24 361 -1212 370 -1238 3 -10 -22 -13 -108 -13 l-112 0 -168
563 c-92 309 -175 586 -183 615 l-16 52 -199 0 -199 0 0 -615 0 -615 -115 0
-115 0 0 1251 0 1251 358 -5 c278 -3 372 -8 425 -20z m1582 -6 c116 -31 182
-67 251 -135 96 -96 150 -225 173 -416 15 -113 14 -1190 0 -1317 -21 -195 -83
-347 -179 -444 -65 -66 -131 -102 -238 -131 -70 -19 -111 -22 -434 -26 l-358
-4 0 1252 0 1252 353 -4 c321 -5 359 -7 432 -27z"/>
<path d="M1350 3086 l0 -466 200 0 c212 0 277 9 351 46 100 50 152 148 171
319 26 229 -27 429 -131 498 -75 50 -129 59 -368 64 l-223 5 0 -466z"/>
<path d="M2930 2465 l0 -1075 173 0 c94 0 203 5 242 10 189 28 288 136 320
347 22 147 22 1332 0 1459 -27 154 -85 242 -190 290 -79 36 -141 44 -351 44
l-194 0 0 -1075z"/>
</g>
</svg>
