<?xml version="1.0" encoding="UTF-8" standalone="no"?>
<svg width="563px" height="16px" viewBox="0 0 563 16" version="1.1" xmlns="http://www.w3.org/2000/svg" xmlns:xlink="http://www.w3.org/1999/xlink">
    <!-- Generator: Sketch 42 (36781) - http://www.bohemiancoding.com/sketch -->
    <title>The quick brown fox</title>
    <desc>Created with Sketch.</desc>
    <defs></defs>
    <g id="Maquettes" stroke="none" stroke-width="1" fill="none" fill-rule="evenodd">
        <g id="PORTFOLIO---Ligthswan---Case-study" transform="translate(-390.000000, -2226.000000)" fill="#FFFFFF">
            <g id="FONT-SECTIONS" transform="translate(330.000000, 2046.000000)">
                <g id="FONT-SECTION" transform="translate(0.000000, 80.000000)">
                    <path d="M64.54,101.96 L64.54,115 L65.58,115 L65.58,101.96 L69.8,101.96 L69.8,101 L60.32,101 L60.32,101.96 L64.54,101.96 Z M82.8847621,101 L82.8847621,107.34 L74.8247621,107.34 L74.8247621,101 L73.7847621,101 L73.7847621,115 L74.8247621,115 L74.8247621,108.3 L82.8847621,108.3 L82.8847621,115 L83.9247621,115 L83.9247621,101 L82.8847621,101 Z M90.3895243,107.34 L90.3895243,101.96 L97.1095243,101.96 L97.1095243,101 L89.3495243,101 L89.3495243,115 L97.2295243,115 L97.2295243,114.04 L90.3895243,114.04 L90.3895243,108.3 L96.6295243,108.3 L96.6295243,107.34 L90.3895243,107.34 Z M117.099049,109.68 L119.839049,112.16 C120.279049,111.6 120.622382,110.966667 120.869049,110.26 C121.115715,109.553333 121.239049,108.8 121.239049,108 C121.239049,107.146667 121.099049,106.34 120.819049,105.58 C120.539049,104.82 120.142382,104.16 119.629049,103.6 C119.115715,103.04 118.499049,102.596666 117.779049,102.27 C117.059049,101.943334 116.265715,101.78 115.399049,101.78 C114.532382,101.78 113.739049,101.943334 113.019049,102.27 C112.299049,102.596666 111.682382,103.04 111.169049,103.6 C110.655715,104.16 110.259049,104.82 109.979049,105.58 C109.699049,106.34 109.559049,107.146667 109.559049,108 C109.559049,108.866667 109.699049,109.676667 109.979049,110.43 C110.259049,111.183333 110.655715,111.84 111.169049,112.4 C111.682382,112.96 112.299049,113.403333 113.019049,113.73 C113.739049,114.056667 114.532382,114.22 115.399049,114.22 C116.145715,114.22 116.832382,114.103333 117.459049,113.87 C118.085715,113.636667 118.645715,113.306667 119.139049,112.88 L116.439049,110.46 L117.099049,109.68 Z M115.399049,100.76 C116.412382,100.76 117.342382,100.946666 118.189049,101.32 C119.035715,101.693334 119.765715,102.206667 120.379049,102.86 C120.992382,103.513334 121.469049,104.28 121.809049,105.16 C122.149049,106.04 122.319049,106.98 122.319049,107.98 C122.319049,108.94 122.169049,109.833333 121.869049,110.66 C121.569049,111.486667 121.152382,112.22 120.619049,112.86 L122.619049,114.64 L121.979049,115.4 L119.919049,113.58 C119.319049,114.1 118.639049,114.506667 117.879049,114.8 C117.119049,115.093333 116.292382,115.24 115.399049,115.24 C114.385715,115.24 113.455715,115.053333 112.609049,114.68 C111.762382,114.306667 111.032382,113.793333 110.419049,113.14 C109.805715,112.486667 109.329049,111.72 108.989049,110.84 C108.649049,109.96 108.479049,109.013333 108.479049,108 C108.479049,106.986667 108.649049,106.04 108.989049,105.16 C109.329049,104.28 109.805715,103.513334 110.419049,102.86 C111.032382,102.206666 111.762382,101.693333 112.609049,101.32 C113.455715,100.946666 114.385715,100.76 115.399049,100.76 Z M135.963811,101 L135.963811,109.64 C135.963811,110.32 135.890477,110.94 135.743811,111.5 C135.597144,112.06 135.363811,112.543333 135.043811,112.95 C134.723811,113.356667 134.313811,113.67 133.813811,113.89 C133.313811,114.11 132.717144,114.22 132.023811,114.22 C131.330478,114.22 130.733811,114.11 130.233811,113.89 C129.733811,113.67 129.323811,113.356667 129.003811,112.95 C128.683811,112.543333 128.450477,112.06 128.303811,111.5 C128.157144,110.94 128.083811,110.32 128.083811,109.64 L128.083811,101 L127.043811,101 L127.043811,109.74 C127.043811,110.553333 127.153811,111.296667 127.373811,111.97 C127.593811,112.643333 127.913811,113.223333 128.333811,113.71 C128.753811,114.196667 129.273811,114.573333 129.893811,114.84 C130.513811,115.106667 131.223811,115.24 132.023811,115.24 C132.823811,115.24 133.533811,115.106667 134.153811,114.84 C134.773811,114.573333 135.293811,114.196667 135.713811,113.71 C136.133811,113.223333 136.453811,112.643333 136.673811,111.97 C136.893811,111.296667 137.003811,110.553333 137.003811,109.74 L137.003811,101 L135.963811,101 Z M142.708573,101 L142.708573,115 L143.748573,115 L143.748573,101 L142.708573,101 Z M155.473335,114.22 C154.606668,114.22 153.816668,114.056667 153.103335,113.73 C152.390002,113.403333 151.776668,112.96 151.263335,112.4 C150.750002,111.84 150.353335,111.183333 150.073335,110.43 C149.793335,109.676667 149.653335,108.866667 149.653335,108 C149.653335,107.146667 149.793335,106.34 150.073335,105.58 C150.353335,104.82 150.750002,104.16 151.263335,103.6 C151.776668,103.04 152.393335,102.596666 153.113335,102.27 C153.833335,101.943334 154.626668,101.78 155.493335,101.78 C156.373335,101.78 157.173335,101.94 157.893335,102.26 C158.613335,102.58 159.226669,103.02 159.733335,103.58 L160.473335,102.9 C159.860001,102.233334 159.133335,101.71 158.293335,101.33 C157.453335,100.95 156.520002,100.76 155.493335,100.76 C154.480002,100.76 153.550002,100.946666 152.703335,101.32 C151.856668,101.693333 151.126668,102.206666 150.513335,102.86 C149.900002,103.513334 149.423335,104.28 149.083335,105.16 C148.743335,106.04 148.573335,106.986667 148.573335,108 C148.573335,109.013333 148.743335,109.96 149.083335,110.84 C149.423335,111.72 149.900002,112.486667 150.513335,113.14 C151.126668,113.793333 151.856668,114.306667 152.703335,114.68 C153.550002,115.053333 154.480002,115.24 155.493335,115.24 C156.560001,115.24 157.536668,115.033333 158.423335,114.62 C159.310001,114.206667 160.060001,113.64 160.673335,112.92 L159.953335,112.2 C159.446668,112.8 158.810001,113.286667 158.043335,113.66 C157.276669,114.033333 156.420002,114.22 155.473335,114.22 Z M165.858097,107.74 L165.858097,101 L164.818097,101 L164.818097,115 L165.858097,115 L165.858097,108.14 L172.938097,115 L174.438097,115 L167.098097,107.86 L173.438097,101 L172.078097,101 L165.858097,107.74 Z M189.427621,107.32 C189.907621,107.32 190.317621,107.246667 190.657621,107.1 C190.997621,106.953333 191.277621,106.76 191.497621,106.52 C191.717621,106.28 191.880955,106 191.987621,105.68 C192.094288,105.36 192.147621,105.02 192.147621,104.66 C192.147621,103.833334 191.887621,103.176667 191.367621,102.69 C190.847621,102.203334 190.107621,101.96 189.147621,101.96 L186.487621,101.96 L186.487621,107.32 L189.427621,107.32 Z M189.647621,114.04 C190.260955,114.04 190.777621,113.956667 191.197621,113.79 C191.617621,113.623333 191.954288,113.406667 192.207621,113.14 C192.460955,112.873333 192.640955,112.57 192.747621,112.23 C192.854288,111.89 192.907621,111.546667 192.907621,111.2 C192.907621,110.853333 192.854288,110.506667 192.747621,110.16 C192.640955,109.813333 192.467621,109.5 192.227621,109.22 C191.987621,108.94 191.677621,108.713333 191.297621,108.54 C190.917621,108.366667 190.460955,108.28 189.927621,108.28 L186.487621,108.28 L186.487621,114.04 L189.647621,114.04 Z M185.447621,101 L189.247621,101 C189.847621,101 190.390955,101.083334 190.877621,101.25 C191.364288,101.416666 191.780955,101.656666 192.127621,101.97 C192.474288,102.283334 192.744288,102.663334 192.937621,103.11 C193.130955,103.556666 193.227621,104.06 193.227621,104.62 C193.227621,105.153333 193.150955,105.603333 192.997621,105.97 C192.844288,106.336667 192.670955,106.64 192.477621,106.88 C192.284288,107.12 192.097621,107.3 191.917621,107.42 C191.737621,107.54 191.620955,107.606667 191.567621,107.62 C191.620955,107.633333 191.777621,107.7 192.037621,107.82 C192.297621,107.94 192.574288,108.133333 192.867621,108.4 C193.160955,108.666667 193.420955,109.026667 193.647621,109.48 C193.874288,109.933333 193.987621,110.5 193.987621,111.18 C193.987621,112.326667 193.620955,113.25 192.887621,113.95 C192.154288,114.65 191.107621,115 189.747621,115 L185.447621,115 L185.447621,101 Z M198.372384,101 L201.752384,101 C202.472384,101 203.112384,101.096666 203.672384,101.29 C204.232384,101.483334 204.709051,101.756667 205.102384,102.11 C205.495717,102.463334 205.792384,102.886667 205.992384,103.38 C206.192384,103.873334 206.292384,104.413334 206.292384,105 C206.292384,105.746667 206.149051,106.36 205.862384,106.84 C205.575717,107.32 205.23905,107.706667 204.852384,108 C204.465717,108.293333 204.065717,108.503333 203.652384,108.63 C203.239051,108.756667 202.912384,108.833334 202.672384,108.86 L206.672384,115 L205.412384,115 L201.492384,108.92 L199.412384,108.92 L199.412384,115 L198.372384,115 L198.372384,101 Z M201.812384,107.92 C202.865717,107.92 203.695717,107.656667 204.302384,107.13 C204.909051,106.603333 205.212384,105.88 205.212384,104.96 C205.212384,104.04 204.905717,103.316666 204.292384,102.79 C203.679051,102.263334 202.852384,102 201.812384,102 L199.412384,102 L199.412384,107.92 L201.812384,107.92 Z M217.057146,101.78 C216.177146,101.78 215.380479,101.943334 214.667146,102.27 C213.953812,102.596666 213.340479,103.04 212.827146,103.6 C212.313812,104.16 211.917146,104.82 211.637146,105.58 C211.357146,106.34 211.217146,107.146667 211.217146,108 C211.217146,108.866667 211.357146,109.676667 211.637146,110.43 C211.917146,111.183333 212.313812,111.84 212.827146,112.4 C213.340479,112.96 213.953813,113.403333 214.667146,113.73 C215.380479,114.056667 216.177146,114.22 217.057146,114.22 C217.937146,114.22 218.733813,114.056667 219.447146,113.73 C220.16048,113.403333 220.773813,112.96 221.287146,112.4 C221.80048,111.84 222.197146,111.183333 222.477146,110.43 C222.757146,109.676667 222.897146,108.866667 222.897146,108 C222.897146,107.146667 222.757146,106.34 222.477146,105.58 C222.197146,104.82 221.80048,104.16 221.287146,103.6 C220.773812,103.04 220.160478,102.596666 219.447146,102.27 C218.733813,101.943334 217.937146,101.78 217.057146,101.78 Z M217.057146,115.24 C216.057146,115.24 215.133813,115.053333 214.287146,114.68 C213.440479,114.306667 212.710479,113.793333 212.097146,113.14 C211.483813,112.486667 211.003813,111.72 210.657146,110.84 C210.310479,109.96 210.137146,109.013333 210.137146,108 C210.137146,106.986667 210.310479,106.04 210.657146,105.16 C211.003813,104.28 211.487146,103.513334 212.107146,102.86 C212.727146,102.206666 213.457146,101.693333 214.297146,101.32 C215.137146,100.946666 216.057146,100.76 217.057146,100.76 C218.057146,100.76 218.977146,100.946666 219.817146,101.32 C220.657146,101.693334 221.387146,102.206667 222.007146,102.86 C222.627146,103.513334 223.11048,104.28 223.457146,105.16 C223.803812,106.04 223.977146,106.986667 223.977146,108 C223.977146,109.013333 223.803812,109.96 223.457146,110.84 C223.11048,111.72 222.63048,112.486667 222.017146,113.14 C221.403812,113.793333 220.673812,114.306667 219.827146,114.68 C218.980479,115.053333 218.057146,115.24 217.057146,115.24 Z M240.301908,115.4 L245.461908,101 L244.361908,101 L240.321908,112.44 L236.681908,101 L235.621908,101 L232.041908,112.44 L227.961908,101 L226.841908,101 L232.001908,115.4 L236.161908,102.72 L240.301908,115.4 Z M250.24667,101 L249.20667,101 L249.20667,115 L250.24667,115 L250.24667,102.76 L258.84667,115 L259.88667,115 L259.88667,101 L258.84667,101 L258.84667,113.2 L250.24667,101 Z M273.696194,107.34 L273.696194,102 L280.316194,102 L280.316194,101 L272.656194,101 L272.656194,115 L273.696194,115 L273.696194,108.3 L279.916194,108.3 L279.916194,107.34 L273.696194,107.34 Z M291.020957,101.78 C290.140957,101.78 289.34429,101.943334 288.630957,102.27 C287.917623,102.596666 287.30429,103.04 286.790957,103.6 C286.277623,104.16 285.880957,104.82 285.600957,105.58 C285.320957,106.34 285.180957,107.146667 285.180957,108 C285.180957,108.866667 285.320957,109.676667 285.600957,110.43 C285.880957,111.183333 286.277623,111.84 286.790957,112.4 C287.30429,112.96 287.917623,113.403333 288.630957,113.73 C289.34429,114.056667 290.140957,114.22 291.020957,114.22 C291.900957,114.22 292.697623,114.056667 293.410957,113.73 C294.12429,113.403333 294.737624,112.96 295.250957,112.4 C295.76429,111.84 296.160957,111.183333 296.440957,110.43 C296.720957,109.676667 296.860957,108.866667 296.860957,108 C296.860957,107.146667 296.720957,106.34 296.440957,105.58 C296.160957,104.82 295.76429,104.16 295.250957,103.6 C294.737623,103.04 294.124289,102.596666 293.410957,102.27 C292.697623,101.943334 291.900957,101.78 291.020957,101.78 Z M291.020957,115.24 C290.020957,115.24 289.097623,115.053333 288.250957,114.68 C287.40429,114.306667 286.67429,113.793333 286.060957,113.14 C285.447623,112.486667 284.967623,111.72 284.620957,110.84 C284.27429,109.96 284.100957,109.013333 284.100957,108 C284.100957,106.986667 284.27429,106.04 284.620957,105.16 C284.967623,104.28 285.450957,103.513334 286.070957,102.86 C286.690957,102.206666 287.420957,101.693333 288.260957,101.32 C289.100957,100.946666 290.020957,100.76 291.020957,100.76 C292.020957,100.76 292.940957,100.946666 293.780957,101.32 C294.620957,101.693334 295.350957,102.206667 295.970957,102.86 C296.590957,103.513334 297.07429,104.28 297.420957,105.16 C297.767623,106.04 297.940957,106.986667 297.940957,108 C297.940957,109.013333 297.767623,109.96 297.420957,110.84 C297.07429,111.72 296.59429,112.486667 295.980957,113.14 C295.367623,113.793333 294.637623,114.306667 293.790957,114.68 C292.94429,115.053333 292.020957,115.24 291.020957,115.24 Z M306.585719,108.62 L310.785719,115 L312.045719,115 L307.205719,107.78 L311.725719,101 L310.505719,101 L306.605719,106.94 L302.725719,101 L301.465719,101 L305.985719,107.78 L301.145719,115 L302.365719,115 L306.585719,108.62 Z M328.235243,101 L328.235243,111.2 C328.235243,111.6 328.185243,111.983333 328.085243,112.35 C327.985243,112.716667 327.828576,113.04 327.615243,113.32 C327.401909,113.6 327.128576,113.82 326.795243,113.98 C326.46191,114.14 326.068576,114.22 325.615243,114.22 C324.908576,114.22 324.32191,114.05 323.855243,113.71 C323.388576,113.37 323.028576,112.986667 322.775243,112.56 L321.975243,113.22 C322.135243,113.46 322.33191,113.7 322.565243,113.94 C322.798576,114.18 323.065243,114.396667 323.365243,114.59 C323.665243,114.783333 324.005243,114.94 324.385243,115.06 C324.765243,115.18 325.18191,115.24 325.635243,115.24 C326.155243,115.24 326.638576,115.15 327.085243,114.97 C327.531909,114.79 327.918576,114.53 328.245243,114.19 C328.57191,113.85 328.825243,113.43 329.005243,112.93 C329.185243,112.43 329.275243,111.853333 329.275243,111.2 L329.275243,101 L328.235243,101 Z M343.620005,101 L343.620005,109.64 C343.620005,110.32 343.546671,110.94 343.400005,111.5 C343.253339,112.06 343.020005,112.543333 342.700005,112.95 C342.380005,113.356667 341.970005,113.67 341.470005,113.89 C340.970005,114.11 340.373338,114.22 339.680005,114.22 C338.986672,114.22 338.390005,114.11 337.890005,113.89 C337.390005,113.67 336.980005,113.356667 336.660005,112.95 C336.340005,112.543333 336.106672,112.06 335.960005,111.5 C335.813339,110.94 335.740005,110.32 335.740005,109.64 L335.740005,101 L334.700005,101 L334.700005,109.74 C334.700005,110.553333 334.810005,111.296667 335.030005,111.97 C335.250005,112.643333 335.570005,113.223333 335.990005,113.71 C336.410005,114.196667 336.930005,114.573333 337.550005,114.84 C338.170005,115.106667 338.880005,115.24 339.680005,115.24 C340.480005,115.24 341.190005,115.106667 341.810005,114.84 C342.430005,114.573333 342.950005,114.196667 343.370005,113.71 C343.790005,113.223333 344.110005,112.643333 344.330005,111.97 C344.550005,111.296667 344.660005,110.553333 344.660005,109.74 L344.660005,101 L343.620005,101 Z M351.064767,101 L350.084767,101 L350.084767,115 L351.104767,115 L351.104767,103.08 L356.424767,111.5 L361.724767,103.06 L361.724767,115 L362.764767,115 L362.764767,101 L361.784767,101 L356.424767,109.6 L351.064767,101 Z M371.789529,108.16 C372.282863,108.16 372.732863,108.083333 373.139529,107.93 C373.546196,107.776667 373.896196,107.566667 374.189529,107.3 C374.482863,107.033333 374.709529,106.71 374.869529,106.33 C375.029529,105.95 375.109529,105.526667 375.109529,105.06 C375.109529,104.606666 375.029529,104.186666 374.869529,103.8 C374.709529,103.413334 374.482863,103.086667 374.189529,102.82 C373.896196,102.553334 373.546196,102.343334 373.139529,102.19 C372.732863,102.036666 372.282863,101.96 371.789529,101.96 L369.229529,101.96 L369.229529,108.16 L371.789529,108.16 Z M368.189529,101 L371.769529,101 C372.449529,101 373.062863,101.103334 373.609529,101.31 C374.156196,101.516666 374.619529,101.803333 374.999529,102.17 C375.379529,102.536666 375.672863,102.966666 375.879529,103.46 C376.086196,103.953334 376.189529,104.486667 376.189529,105.06 C376.189529,105.633333 376.086196,106.166666 375.879529,106.66 C375.672863,107.153333 375.379529,107.583333 374.999529,107.95 C374.619529,108.316667 374.156196,108.603334 373.609529,108.81 C373.062863,109.016667 372.449529,109.12 371.769529,109.12 L369.229529,109.12 L369.229529,115 L368.189529,115 L368.189529,101 Z M387.174292,111.5 C387.174292,111.926667 387.090958,112.306667 386.924292,112.64 C386.757625,112.973333 386.534292,113.256667 386.254292,113.49 C385.974292,113.723333 385.644292,113.903333 385.264292,114.03 C384.884292,114.156667 384.487625,114.22 384.074292,114.22 C383.634292,114.22 383.234292,114.153333 382.874292,114.02 C382.514292,113.886667 382.190958,113.71 381.904292,113.49 C381.617625,113.27 381.367625,113.016667 381.154292,112.73 C380.940958,112.443333 380.767625,112.14 380.634292,111.82 L379.694292,112.38 C379.867625,112.726667 380.087625,113.073333 380.354292,113.42 C380.620958,113.766667 380.937625,114.073333 381.304292,114.34 C381.670958,114.606667 382.084292,114.823333 382.544292,114.99 C383.004292,115.156667 383.520958,115.24 384.094292,115.24 C384.667625,115.24 385.204292,115.15 385.704292,114.97 C386.204292,114.79 386.640958,114.536667 387.014292,114.21 C387.387625,113.883333 387.680958,113.486667 387.894292,113.02 C388.107625,112.553333 388.214292,112.033333 388.214292,111.46 C388.214292,111.006667 388.144292,110.6 388.004292,110.24 C387.864292,109.88 387.654292,109.543333 387.374292,109.23 C387.094292,108.916667 386.747625,108.63 386.334292,108.37 C385.920958,108.11 385.434292,107.853333 384.874292,107.6 C384.367625,107.373333 383.894292,107.15 383.454292,106.93 C383.014292,106.71 382.634292,106.473333 382.314292,106.22 C381.994292,105.966667 381.744292,105.686667 381.564292,105.38 C381.384292,105.073333 381.294292,104.706666 381.294292,104.28 C381.294292,103.56 381.550958,102.963334 382.064292,102.49 C382.577625,102.016666 383.260958,101.78 384.114292,101.78 C384.487625,101.78 384.834292,101.826666 385.154292,101.92 C385.474292,102.013333 385.757625,102.136666 386.004292,102.29 C386.250958,102.443333 386.470958,102.616666 386.664292,102.81 C386.857625,103.003334 387.020958,103.2 387.154292,103.4 L387.954292,102.78 C387.767625,102.526666 387.550958,102.28 387.304292,102.04 C387.057625,101.8 386.774292,101.586666 386.454292,101.4 C386.134292,101.213334 385.777625,101.06 385.384292,100.94 C384.990958,100.82 384.560958,100.76 384.094292,100.76 C383.454292,100.76 382.894292,100.866666 382.414292,101.08 C381.934292,101.293334 381.534292,101.57 381.214292,101.91 C380.894292,102.25 380.654292,102.633334 380.494292,103.06 C380.334292,103.486667 380.254292,103.913334 380.254292,104.34 C380.254292,104.86 380.360958,105.32 380.574292,105.72 C380.787625,106.12 381.067625,106.476667 381.414292,106.79 C381.760958,107.103334 382.160958,107.386667 382.614292,107.64 C383.067625,107.893334 383.534292,108.126667 384.014292,108.34 L385.204292,108.9 C385.584292,109.086667 385.920958,109.3 386.214292,109.54 C386.507625,109.78 386.740958,110.056667 386.914292,110.37 C387.087625,110.683333 387.174292,111.06 387.174292,111.5 Z M406.383816,101.78 C405.503816,101.78 404.707149,101.943334 403.993816,102.27 C403.280482,102.596666 402.667149,103.04 402.153816,103.6 C401.640482,104.16 401.243816,104.82 400.963816,105.58 C400.683816,106.34 400.543816,107.146667 400.543816,108 C400.543816,108.866667 400.683816,109.676667 400.963816,110.43 C401.243816,111.183333 401.640482,111.84 402.153816,112.4 C402.667149,112.96 403.280483,113.403333 403.993816,113.73 C404.707149,114.056667 405.503816,114.22 406.383816,114.22 C407.263816,114.22 408.060483,114.056667 408.773816,113.73 C409.48715,113.403333 410.100483,112.96 410.613816,112.4 C411.12715,111.84 411.523816,111.183333 411.803816,110.43 C412.083816,109.676667 412.223816,108.866667 412.223816,108 C412.223816,107.146667 412.083816,106.34 411.803816,105.58 C411.523816,104.82 411.12715,104.16 410.613816,103.6 C410.100482,103.04 409.487148,102.596666 408.773816,102.27 C408.060483,101.943334 407.263816,101.78 406.383816,101.78 Z M406.383816,115.24 C405.383816,115.24 404.460483,115.053333 403.613816,114.68 C402.767149,114.306667 402.037149,113.793333 401.423816,113.14 C400.810483,112.486667 400.330483,111.72 399.983816,110.84 C399.637149,109.96 399.463816,109.013333 399.463816,108 C399.463816,106.986667 399.637149,106.04 399.983816,105.16 C400.330483,104.28 400.813816,103.513334 401.433816,102.86 C402.053816,102.206666 402.783816,101.693333 403.623816,101.32 C404.463816,100.946666 405.383816,100.76 406.383816,100.76 C407.383816,100.76 408.303816,100.946666 409.143816,101.32 C409.983816,101.693334 410.713816,102.206667 411.333816,102.86 C411.953816,103.513334 412.43715,104.28 412.783816,105.16 C413.130482,106.04 413.303816,106.986667 413.303816,108 C413.303816,109.013333 413.130482,109.96 412.783816,110.84 C412.43715,111.72 411.95715,112.486667 411.343816,113.14 C410.730482,113.793333 410.000482,114.306667 409.153816,114.68 C408.307149,115.053333 407.383816,115.24 406.383816,115.24 Z M422.048578,115.4 L427.888578,101 L426.808578,101 L422.068578,112.9 L417.328578,101 L416.208578,101 L422.048578,115.4 Z M432.71334,107.34 L432.71334,101.96 L439.43334,101.96 L439.43334,101 L431.67334,101 L431.67334,115 L439.55334,115 L439.55334,114.04 L432.71334,114.04 L432.71334,108.3 L438.95334,108.3 L438.95334,107.34 L432.71334,107.34 Z M444.338102,101 L447.718102,101 C448.438102,101 449.078102,101.096666 449.638102,101.29 C450.198102,101.483334 450.674769,101.756667 451.068102,102.11 C451.461435,102.463334 451.758102,102.886667 451.958102,103.38 C452.158102,103.873334 452.258102,104.413334 452.258102,105 C452.258102,105.746667 452.114769,106.36 451.828102,106.84 C451.541435,107.32 451.204769,107.706667 450.818102,108 C450.431435,108.293333 450.031435,108.503333 449.618102,108.63 C449.204769,108.756667 448.878102,108.833334 448.638102,108.86 L452.638102,115 L451.378102,115 L447.458102,108.92 L445.378102,108.92 L445.378102,115 L444.338102,115 L444.338102,101 Z M447.778102,107.92 C448.831435,107.92 449.661435,107.656667 450.268102,107.13 C450.874769,106.603333 451.178102,105.88 451.178102,104.96 C451.178102,104.04 450.871435,103.316666 450.258102,102.79 C449.644769,102.263334 448.818102,102 447.778102,102 L445.378102,102 L445.378102,107.92 L447.778102,107.92 Z M467.107627,101.96 L467.107627,115 L468.147627,115 L468.147627,101.96 L472.367627,101.96 L472.367627,101 L462.887627,101 L462.887627,101.96 L467.107627,101.96 Z M485.452389,101 L485.452389,107.34 L477.392389,107.34 L477.392389,101 L476.352389,101 L476.352389,115 L477.392389,115 L477.392389,108.3 L485.452389,108.3 L485.452389,115 L486.492389,115 L486.492389,101 L485.452389,101 Z M492.957151,107.34 L492.957151,101.96 L499.677151,101.96 L499.677151,101 L491.917151,101 L491.917151,115 L499.797151,115 L499.797151,114.04 L492.957151,114.04 L492.957151,108.3 L499.197151,108.3 L499.197151,107.34 L492.957151,107.34 Z M511.926675,101 L511.926675,115 L519.646675,115 L519.646675,114.04 L512.966675,114.04 L512.966675,101 L511.926675,101 Z M525.191437,109.96 L531.271437,109.96 L528.231437,102.16 L525.191437,109.96 Z M527.651437,101 L528.811437,101 L534.391437,115 L533.271437,115 L531.671437,110.92 L524.791437,110.92 L523.191437,115 L522.071437,115 L527.651437,101 Z M547.3362,101 L537.4762,101 L537.4762,101.96 L545.5362,101.96 L537.0162,115 L547.0362,115 L547.0362,114.04 L538.8162,114.04 L547.3362,101 Z M554.880962,109.5 L554.880962,115 L555.920962,115 L555.920962,109.5 L560.760962,101 L559.600962,101 L555.420962,108.44 L551.240962,101 L550.040962,101 L554.880962,109.5 Z M575.710486,114.04 C576.630486,114.04 577.463819,113.896667 578.210486,113.61 C578.957153,113.323333 579.590486,112.913333 580.110486,112.38 C580.630486,111.846667 581.03382,111.21 581.320486,110.47 C581.607152,109.73 581.750486,108.906667 581.750486,108 C581.750486,107.093333 581.607152,106.27 581.320486,105.53 C581.03382,104.79 580.630486,104.153334 580.110486,103.62 C579.590486,103.086666 578.957153,102.676666 578.210486,102.39 C577.463819,102.103334 576.630486,101.96 575.710486,101.96 L573.130486,101.96 L573.130486,114.04 L575.710486,114.04 Z M575.910486,101 C576.923819,101 577.853819,101.176666 578.700486,101.53 C579.547153,101.883334 580.277153,102.37 580.890486,102.99 C581.50382,103.61 581.980486,104.346666 582.320486,105.2 C582.660486,106.053333 582.830486,106.986666 582.830486,108 C582.830486,109.013333 582.660486,109.946667 582.320486,110.8 C581.980486,111.653333 581.50382,112.39 580.890486,113.01 C580.277153,113.63 579.547153,114.116667 578.700486,114.47 C577.853819,114.823333 576.923819,115 575.910486,115 L572.090486,115 L572.090486,101 L575.910486,101 Z M593.415248,101.78 C592.535248,101.78 591.738581,101.943334 591.025248,102.27 C590.311915,102.596666 589.698581,103.04 589.185248,103.6 C588.671915,104.16 588.275248,104.82 587.995248,105.58 C587.715248,106.34 587.575248,107.146667 587.575248,108 C587.575248,108.866667 587.715248,109.676667 587.995248,110.43 C588.275248,111.183333 588.671915,111.84 589.185248,112.4 C589.698582,112.96 590.311915,113.403333 591.025248,113.73 C591.738581,114.056667 592.535248,114.22 593.415248,114.22 C594.295248,114.22 595.091915,114.056667 595.805248,113.73 C596.518582,113.403333 597.131916,112.96 597.645248,112.4 C598.158582,111.84 598.555248,111.183333 598.835248,110.43 C599.115248,109.676667 599.255248,108.866667 599.255248,108 C599.255248,107.146667 599.115248,106.34 598.835248,105.58 C598.555248,104.82 598.158582,104.16 597.645248,103.6 C597.131914,103.04 596.518581,102.596666 595.805248,102.27 C595.091915,101.943334 594.295248,101.78 593.415248,101.78 Z M593.415248,115.24 C592.415248,115.24 591.491915,115.053333 590.645248,114.68 C589.798582,114.306667 589.068582,113.793333 588.455248,113.14 C587.841915,112.486667 587.361915,111.72 587.015248,110.84 C586.668582,109.96 586.495248,109.013333 586.495248,108 C586.495248,106.986667 586.668582,106.04 587.015248,105.16 C587.361915,104.28 587.845248,103.513334 588.465248,102.86 C589.085248,102.206666 589.815248,101.693333 590.655248,101.32 C591.495248,100.946666 592.415248,100.76 593.415248,100.76 C594.415248,100.76 595.335248,100.946666 596.175248,101.32 C597.015248,101.693334 597.745248,102.206667 598.365248,102.86 C598.985248,103.513334 599.468582,104.28 599.815248,105.16 C600.161914,106.04 600.335248,106.986667 600.335248,108 C600.335248,109.013333 600.161914,109.96 599.815248,110.84 C599.468582,111.72 598.988582,112.486667 598.375248,113.14 C597.761914,113.793333 597.031914,114.306667 596.185248,114.68 C595.338581,115.053333 594.415248,115.24 593.415248,115.24 Z M611.56001,107.64 L611.56001,108.62 L615.38001,108.62 L615.38001,112.9 C615.10001,113.126667 614.783344,113.323333 614.43001,113.49 C614.076677,113.656667 613.706677,113.793333 613.32001,113.9 C612.933343,114.006667 612.54001,114.086667 612.14001,114.14 C611.74001,114.193333 611.36001,114.22 611.00001,114.22 C610.08001,114.22 609.253343,114.06 608.52001,113.74 C607.786677,113.42 607.163344,112.98 606.65001,112.42 C606.136677,111.86 605.746677,111.206667 605.48001,110.46 C605.213343,109.713334 605.08001,108.906667 605.08001,108.04 C605.08001,107.16 605.22001,106.34 605.50001,105.58 C605.78001,104.819999 606.176677,104.156666 606.69001,103.59 C607.203344,103.023334 607.82001,102.58 608.54001,102.26 C609.26001,101.94 610.066677,101.78 610.96001,101.78 C611.853343,101.78 612.68001,101.933334 613.44001,102.24 C614.20001,102.546666 614.80001,102.946666 615.24001,103.44 L615.98001,102.74 C615.726677,102.46 615.42001,102.196666 615.06001,101.95 C614.70001,101.703334 614.306677,101.493334 613.88001,101.32 C613.453343,101.146666 612.993343,101.01 612.50001,100.91 C612.006677,100.81 611.493343,100.76 610.96001,100.76 C609.92001,100.76 608.973343,100.946666 608.12001,101.32 C607.266677,101.693333 606.536677,102.206666 605.93001,102.86 C605.323343,103.513334 604.85001,104.283334 604.51001,105.17 C604.17001,106.056667 604.00001,107.006667 604.00001,108.02 C604.00001,109.02 604.163344,109.96 604.49001,110.84 C604.816677,111.72 605.286677,112.486667 605.90001,113.14 C606.513343,113.793333 607.246677,114.306667 608.10001,114.68 C608.953343,115.053333 609.913343,115.24 610.98001,115.24 C611.446677,115.24 611.923343,115.2 612.41001,115.12 C612.896677,115.04 613.376677,114.923333 613.85001,114.77 C614.323343,114.616667 614.776677,114.423333 615.21001,114.19 C615.643344,113.956667 616.04001,113.68 616.40001,113.36 L616.40001,107.64 L611.56001,107.64 Z M620.824772,114.44 C620.824772,114.666667 620.901439,114.856667 621.054772,115.01 C621.208106,115.163333 621.398106,115.24 621.624772,115.24 C621.851439,115.24 622.041439,115.163333 622.194772,115.01 C622.348106,114.856667 622.424772,114.666667 622.424772,114.44 C622.424772,114.213333 622.348106,114.023333 622.194772,113.87 C622.041439,113.716667 621.851439,113.64 621.624772,113.64 C621.398106,113.64 621.208106,113.716667 621.054772,113.87 C620.901439,114.023333 620.824772,114.213333 620.824772,114.44 Z" id="The-quick-brown-fox"></path>
                </g>
            </g>
        </g>
    </g>
</svg>